<mxfile host="65bd71144e">
    <diagram id="HIP3nbAZw_EuaXWnEj3U" name="Page-1">
        <mxGraphModel dx="858" dy="734" grid="1" gridSize="10" guides="1" tooltips="1" connect="1" arrows="1" fold="1" page="1" pageScale="1" pageWidth="850" pageHeight="1100" math="0" shadow="0">
            <root>
                <mxCell id="0"/>
                <mxCell id="1" parent="0"/>
                <mxCell id="4" style="edgeStyle=orthogonalEdgeStyle;html=1;rounded=0;" parent="1" source="2" edge="1">
                    <mxGeometry relative="1" as="geometry">
                        <mxPoint x="280" y="440" as="targetPoint"/>
                    </mxGeometry>
                </mxCell>
                <mxCell id="2" value="Start" style="strokeWidth=2;html=1;shape=mxgraph.flowchart.terminator;whiteSpace=wrap;" parent="1" vertex="1">
                    <mxGeometry x="230" y="310" width="100" height="60" as="geometry"/>
                </mxCell>
                <mxCell id="5" value="Stop" style="strokeWidth=2;html=1;shape=mxgraph.flowchart.terminator;whiteSpace=wrap;" vertex="1" parent="1">
                    <mxGeometry x="460" y="460" width="100" height="60" as="geometry"/>
                </mxCell>
                <mxCell id="6" value="load HTML" style="rounded=1;whiteSpace=wrap;html=1;absoluteArcSize=1;arcSize=14;strokeWidth=2;" vertex="1" parent="1">
                    <mxGeometry x="230" y="440" width="100" height="60" as="geometry"/>
                </mxCell>
                <mxCell id="7" style="edgeStyle=orthogonalEdgeStyle;html=1;rounded=0;" edge="1" parent="1">
                    <mxGeometry relative="1" as="geometry">
                        <mxPoint x="280" y="500" as="sourcePoint"/>
                        <mxPoint x="280" y="570" as="targetPoint"/>
                    </mxGeometry>
                </mxCell>
                <mxCell id="8" value="start splashScene" style="rounded=1;whiteSpace=wrap;html=1;absoluteArcSize=1;arcSize=14;strokeWidth=2;" vertex="1" parent="1">
                    <mxGeometry x="230" y="570" width="100" height="60" as="geometry"/>
                </mxCell>
                <mxCell id="9" style="edgeStyle=orthogonalEdgeStyle;html=1;rounded=0;" edge="1" parent="1">
                    <mxGeometry relative="1" as="geometry">
                        <mxPoint x="280" y="630" as="sourcePoint"/>
                        <mxPoint x="280" y="700" as="targetPoint"/>
                    </mxGeometry>
                </mxCell>
                <mxCell id="10" value="start titleScene" style="rounded=1;whiteSpace=wrap;html=1;absoluteArcSize=1;arcSize=14;strokeWidth=2;" vertex="1" parent="1">
                    <mxGeometry x="230" y="700" width="100" height="60" as="geometry"/>
                </mxCell>
                <mxCell id="11" style="edgeStyle=orthogonalEdgeStyle;html=1;rounded=0;" edge="1" parent="1">
                    <mxGeometry relative="1" as="geometry">
                        <mxPoint x="280" y="760" as="sourcePoint"/>
                        <mxPoint x="280" y="830" as="targetPoint"/>
                    </mxGeometry>
                </mxCell>
                <mxCell id="12" value="start menuScene" style="rounded=1;whiteSpace=wrap;html=1;absoluteArcSize=1;arcSize=14;strokeWidth=2;" vertex="1" parent="1">
                    <mxGeometry x="230" y="830" width="100" height="60" as="geometry"/>
                </mxCell>
                <mxCell id="13" value="" style="strokeWidth=2;html=1;shape=mxgraph.flowchart.annotation_2;align=left;labelPosition=right;pointerEvents=1;direction=south;" vertex="1" parent="1">
                    <mxGeometry x="180" y="890" width="200" height="50" as="geometry"/>
                </mxCell>
                <mxCell id="14" value="if clicked startButton" style="strokeWidth=2;html=1;shape=mxgraph.flowchart.decision;whiteSpace=wrap;" vertex="1" parent="1">
                    <mxGeometry x="130" y="940" width="100" height="100" as="geometry"/>
                </mxCell>
                <mxCell id="15" value="if clicked instructionsButton" style="strokeWidth=2;html=1;shape=mxgraph.flowchart.decision;whiteSpace=wrap;" vertex="1" parent="1">
                    <mxGeometry x="330" y="940" width="100" height="100" as="geometry"/>
                </mxCell>
                <mxCell id="19" style="edgeStyle=orthogonalEdgeStyle;html=1;rounded=0;" edge="1" parent="1">
                    <mxGeometry relative="1" as="geometry">
                        <mxPoint x="380" y="1040" as="sourcePoint"/>
                        <mxPoint x="380" y="1110" as="targetPoint"/>
                    </mxGeometry>
                </mxCell>
                <mxCell id="20" value="start instructionsScene" style="rounded=1;whiteSpace=wrap;html=1;absoluteArcSize=1;arcSize=14;strokeWidth=2;" vertex="1" parent="1">
                    <mxGeometry x="330" y="1110" width="100" height="60" as="geometry"/>
                </mxCell>
                <mxCell id="22" style="edgeStyle=orthogonalEdgeStyle;html=1;rounded=0;" edge="1" parent="1">
                    <mxGeometry relative="1" as="geometry">
                        <mxPoint x="380" y="1170" as="sourcePoint"/>
                        <mxPoint x="380" y="1240" as="targetPoint"/>
                    </mxGeometry>
                </mxCell>
                <mxCell id="23" value="print instructionsText" style="rounded=1;whiteSpace=wrap;html=1;absoluteArcSize=1;arcSize=14;strokeWidth=2;" vertex="1" parent="1">
                    <mxGeometry x="330" y="1240" width="100" height="60" as="geometry"/>
                </mxCell>
                <mxCell id="24" style="edgeStyle=orthogonalEdgeStyle;html=1;rounded=0;entryX=0.5;entryY=0;entryDx=0;entryDy=0;" edge="1" parent="1" target="12">
                    <mxGeometry relative="1" as="geometry">
                        <mxPoint x="380" y="1430" as="sourcePoint"/>
                        <mxPoint x="280" y="820" as="targetPoint"/>
                        <Array as="points">
                            <mxPoint x="380" y="1500"/>
                            <mxPoint x="480" y="1500"/>
                            <mxPoint x="480" y="800"/>
                            <mxPoint x="280" y="800"/>
                        </Array>
                    </mxGeometry>
                </mxCell>
                <mxCell id="25" value="if clicked instructionsText" style="rounded=1;whiteSpace=wrap;html=1;absoluteArcSize=1;arcSize=14;strokeWidth=2;" vertex="1" parent="1">
                    <mxGeometry x="330" y="1370" width="100" height="60" as="geometry"/>
                </mxCell>
                <mxCell id="26" style="edgeStyle=orthogonalEdgeStyle;html=1;rounded=0;" edge="1" parent="1">
                    <mxGeometry relative="1" as="geometry">
                        <mxPoint x="379.44" y="1300" as="sourcePoint"/>
                        <mxPoint x="379.44" y="1370" as="targetPoint"/>
                    </mxGeometry>
                </mxCell>
                <mxCell id="27" style="edgeStyle=orthogonalEdgeStyle;html=1;rounded=0;" edge="1" parent="1">
                    <mxGeometry relative="1" as="geometry">
                        <mxPoint x="180" y="1040" as="sourcePoint"/>
                        <mxPoint x="180" y="1110" as="targetPoint"/>
                    </mxGeometry>
                </mxCell>
                <mxCell id="28" value="start levelScene" style="rounded=1;whiteSpace=wrap;html=1;absoluteArcSize=1;arcSize=14;strokeWidth=2;" vertex="1" parent="1">
                    <mxGeometry x="130" y="1110" width="100" height="60" as="geometry"/>
                </mxCell>
            </root>
        </mxGraphModel>
    </diagram>
</mxfile>